<svg width="181" height="106" viewBox="0 0 181 106" fill="none" xmlns="http://www.w3.org/2000/svg">
<path d="M39.9231 7.10256C35.7179 8.50427 34.5043 9.71795 33.1026 13.9231C33.0684 14.0256 32.9316 14.0256 32.8974 13.9231C31.4957 9.73504 30.2821 8.50427 26.0769 7.10256C25.9744 7.06838 25.9744 6.93162 26.0769 6.89744C30.2821 5.49573 31.4957 4.28205 32.8974 0.0769231C32.9316 -0.025641 33.0684 -0.025641 33.1026 0.0769231C34.5043 4.28205 35.735 5.49573 39.9231 6.89744C40.0256 6.93162 40.0256 7.06838 39.9231 7.10256Z" fill="white"/>
<path d="M180.912 26.1172C176.106 27.7192 174.719 29.1062 173.117 33.9121C173.078 34.0293 172.922 34.0293 172.883 33.9121C171.281 29.1258 169.894 27.7192 165.088 26.1172C164.971 26.0781 164.971 25.9219 165.088 25.8828C169.894 24.2808 171.281 22.8938 172.883 18.0879C172.922 17.9707 173.078 17.9707 173.117 18.0879C174.719 22.8938 176.126 24.2808 180.912 25.8828C181.029 25.9219 181.029 26.0781 180.912 26.1172Z" fill="white"/>
<path d="M148.934 84.0879C145.33 85.2894 144.289 86.3297 143.088 89.9341C143.059 90.022 142.941 90.022 142.912 89.9341C141.711 86.3443 140.67 85.2894 137.066 84.0879C136.978 84.0586 136.978 83.9414 137.066 83.9121C140.67 82.7106 141.711 81.6703 142.912 78.0659C142.941 77.978 143.059 77.978 143.088 78.0659C144.289 81.6703 145.344 82.7106 148.934 83.9121C149.022 83.9414 149.022 84.0586 148.934 84.0879Z" fill="white"/>
<path d="M9.95604 27.0586C7.55311 27.8596 6.85958 28.5531 6.05861 30.956C6.03907 31.0147 5.96093 31.0147 5.94139 30.956C5.14042 28.5629 4.44689 27.8596 2.04396 27.0586C1.98535 27.0391 1.98535 26.9609 2.04396 26.9414C4.44689 26.1404 5.14042 25.4469 5.94139 23.044C5.96093 22.9853 6.03907 22.9853 6.05861 23.044C6.85958 25.4469 7.56288 26.1404 9.95604 26.9414C10.0147 26.9609 10.0147 27.0391 9.95604 27.0586Z" fill="white"/>
<path d="M49.9451 46.0733C46.9414 47.0745 46.0745 47.9414 45.0733 50.9451C45.0488 51.0183 44.9512 51.0183 44.9267 50.9451C43.9255 47.9536 43.0586 47.0745 40.0549 46.0733C39.9817 46.0488 39.9817 45.9512 40.0549 45.9267C43.0586 44.9255 43.9255 44.0586 44.9267 41.0549C44.9512 40.9817 45.0488 40.9817 45.0733 41.0549C46.0745 44.0586 46.9536 44.9255 49.9451 45.9267C50.0183 45.9512 50.0183 46.0488 49.9451 46.0733Z" fill="white"/>
<path d="M13.978 76.0293C12.7766 76.4298 12.4298 76.7766 12.0293 77.978C12.0195 78.0073 11.9805 78.0073 11.9707 77.978C11.5702 76.7814 11.2234 76.4298 10.022 76.0293C9.99267 76.0195 9.99267 75.9805 10.022 75.9707C11.2234 75.5702 11.5702 75.2234 11.9707 74.022C11.9805 73.9927 12.0195 73.9927 12.0293 74.022C12.4298 75.2234 12.7814 75.5702 13.978 75.9707C14.0073 75.9805 14.0073 76.0195 13.978 76.0293Z" fill="white"/>
<path d="M138.978 21.0293C137.777 21.4298 137.43 21.7766 137.029 22.978C137.02 23.0073 136.98 23.0073 136.971 22.978C136.57 21.7814 136.223 21.4298 135.022 21.0293C134.993 21.0195 134.993 20.9805 135.022 20.9707C136.223 20.5702 136.57 20.2234 136.971 19.022C136.98 18.9927 137.02 18.9927 137.029 19.022C137.43 20.2234 137.781 20.5702 138.978 20.9707C139.007 20.9805 139.007 21.0195 138.978 21.0293Z" fill="white"/>
<path d="M55.967 103.044C54.1648 103.645 53.6447 104.165 53.044 105.967C53.0293 106.011 52.9707 106.011 52.956 105.967C52.3553 104.172 51.8352 103.645 50.033 103.044C49.989 103.029 49.989 102.971 50.033 102.956C51.8352 102.355 52.3553 101.835 52.956 100.033C52.9707 99.989 53.0293 99.989 53.044 100.033C53.6447 101.835 54.1722 102.355 55.967 102.956C56.011 102.971 56.011 103.029 55.967 103.044Z" fill="white"/>
<path d="M164.956 66.0586C162.553 66.8596 161.86 67.5531 161.059 69.956C161.039 70.0147 160.961 70.0147 160.941 69.956C160.14 67.5629 159.447 66.8596 157.044 66.0586C156.985 66.0391 156.985 65.9609 157.044 65.9414C159.447 65.1404 160.14 64.4469 160.941 62.044C160.961 61.9853 161.039 61.9853 161.059 62.044C161.86 64.4469 162.563 65.1404 164.956 65.9414C165.015 65.9609 165.015 66.0391 164.956 66.0586Z" fill="white"/>
<path d="M3.97802 89.0293C2.77656 89.4298 2.42979 89.7766 2.0293 90.978C2.01954 91.0073 1.98046 91.0073 1.9707 90.978C1.57021 89.7814 1.22344 89.4298 0.021978 89.0293C-0.00732601 89.0195 -0.00732601 88.9805 0.021978 88.9707C1.22344 88.5702 1.57021 88.2234 1.9707 87.022C1.98046 86.9927 2.01954 86.9927 2.0293 87.022C2.42979 88.2234 2.78144 88.5702 3.97802 88.9707C4.00733 88.9805 4.00733 89.0195 3.97802 89.0293Z" fill="white"/>
<path d="M122.978 58.0293C121.777 58.4298 121.43 58.7766 121.029 59.978C121.02 60.0073 120.98 60.0073 120.971 59.978C120.57 58.7814 120.223 58.4298 119.022 58.0293C118.993 58.0195 118.993 57.9805 119.022 57.9707C120.223 57.5702 120.57 57.2234 120.971 56.022C120.98 55.9927 121.02 55.9927 121.029 56.022C121.43 57.2234 121.781 57.5702 122.978 57.9707C123.007 57.9805 123.007 58.0195 122.978 58.0293Z" fill="white"/>
</svg>
